<?xml version="1.0" encoding="UTF-8" standalone="no"?>
<svg id="svg2" xmlns:rdf="http://www.w3.org/1999/02/22-rdf-syntax-ns#" style="shape-rendering:geometricPrecision;text-rendering:geometricPrecision;image-rendering:optimizeQuality" xmlns="http://www.w3.org/2000/svg" fill-rule="evenodd" xml:space="preserve" height="2400px" width="2400px" version="1.1" clip-rule="evenodd" xmlns:cc="http://creativecommons.org/ns#" xmlns:dc="http://purl.org/dc/elements/1.1/" viewBox="0 0 2400 2400"><defs id="defs4"><style id="style6" type="text/css"><![CDATA[
    .fil1 {fill:white}
    .fil0 {fill:#007CC3;fill-rule:nonzero}
   ]]></style></defs><g id="layer2"><rect id="rect3489" style="image-rendering:optimizeQuality;shape-rendering:geometricPrecision" fill-rule="evenodd" rx="201.62" ry="302.43" height="2091.8" width="6401.4" clip-rule="evenodd" y="148.6" x="-378.03" fill="#007cc3"/></g><g id="layer1"><g id="Squirrel" style="image-rendering:optimizeQuality;text-rendering:geometricPrecision;shape-rendering:geometricPrecision" fill-rule="evenodd" clip-rule="evenodd" transform="translate(-294.92)"><path id="path14" fill="#fff" class="fil1" d="m451.12 2101.9c0-76.352 61.892-138.25 138.24-138.25h105.64c-65.67-73.3-105.63-170.2-105.63-276.5v-345.61h-138.24c-38.177 0-69.125-30.948-69.125-69.122 0-38.176 30.949-69.124 69.125-69.124h138.24v-138.24h-69.123c-114.52 0-207.37-92.845-207.37-207.37 0-229.05 185.69-414.74 414.74-414.74 0-76.35 61.898-138.25 138.25-138.25v138.25h69.123c24.24 0 47.5 4.173 69.122 11.818v-11.818c0-76.35 61.898-138.25 138.25-138.25v691.23c0 95.416 38.696 181.82 101.25 244.37l33.489 33.488c87.575 87.575 141.76 208.54 141.76 342.1v278.64c0 38.177 30.946 69.122 69.124 69.122h207.37c152.7 0 276.5-123.79 276.5-276.49v-414.74c0-38.176-30.949-69.124-69.125-69.124h-414.74c-114.53 0-207.37-92.841-207.37-207.37v-276.49c0-229.06 185.68-414.74 414.74-414.74 229.05 0 414.74 185.69 414.74 414.74v69.121c0 76.352-61.896 138.25-138.24 138.25v-207.37c0-152.7-123.79-276.5-276.5-276.5-152.7 0-276.49 123.79-276.49 276.5v276.49c0 38.177 30.946 69.125 69.124 69.125h414.74c114.53 0 207.37 92.842 207.37 207.37v414.74c0 229.06-185.69 414.74-414.74 414.74h-1244.2zm841.29-138.25c-7.6435-21.622-11.816-44.882-11.816-69.122v-278.64c0-95.414-38.697-181.82-101.25-244.37l-33.488-33.487c-87.576-87.576-141.76-208.54-141.76-342.1v-345.61c0-38.177-30.945-69.122-69.122-69.122h-207.37c-152.7 0-276.49 123.79-276.49 276.49 0 38.177 30.945 69.124 69.122 69.124h103.68c57.264 0 103.68 46.42 103.68 103.68v656.67c0 152.7 123.79 276.49 276.49 276.49h288.31zm-564.8-1296.1c-38.176 0-69.123 30.949-69.123 69.124 0 38.177 30.948 69.124 69.123 69.124 38.177 0 69.125-30.948 69.125-69.124s-30.949-69.124-69.125-69.124zm967.72 708.52c-57.261 0-103.68 46.422-103.68 103.68 0 42.758 25.882 79.465 62.831 95.322l-62.831 146.61h207.37l-62.832-146.61c36.95-15.857 62.832-52.564 62.832-95.322 0-57.261-46.42-103.68-103.69-103.68z"/></g><text id="text3359" style="word-spacing:0px;letter-spacing:0px" xml:space="preserve" font-size="70px" y="1281.356" x="2277.9661" font-family="sans-serif" line-height="125%" fill="#000000"><tspan id="tspan3361" x="2277.9661" y="1281.356"/></text>
<text id="text3363" style="word-spacing:0px;letter-spacing:0px" xml:space="preserve" font-size="40px" y="1603.9232" x="1978.9896" font-family="sans-serif" line-height="125%" fill="#ffffff"><tspan id="tspan3365" font-weight="bold" font-size="1125px" y="1603.9232" x="1978.9896" font-family="&apos;.Geeza Pro Interface&apos;" fill="#ffffff">Login</tspan></text>
</g><rect id="rect3487" rx="201.62" ry="302.43" height="663.66" width="1461.7" y="-1279.5" x="1285.3" fill="#fff"/></svg>
